<mxfile host="app.diagrams.net" modified="2024-04-05T17:52:31.035Z" agent="Mozilla/5.0 (Macintosh; Intel Mac OS X 10_15_7) AppleWebKit/605.1.15 (KHTML, like Gecko) Version/17.3.1 Safari/605.1.15" etag="GPG01BFXY-9TTFN7O6wE" version="23.1.1" type="device">
  <diagram name="Page-1" id="VE2oSn_musDjYFuUm0tj">
    <mxGraphModel dx="954" dy="624" grid="1" gridSize="10" guides="1" tooltips="1" connect="1" arrows="1" fold="1" page="1" pageScale="1" pageWidth="1800" pageHeight="1400" math="0" shadow="0">
      <root>
        <mxCell id="0" />
        <mxCell id="1" parent="0" />
        <mxCell id="zIlRIG3uply4K8ErRN-w-7" value="" style="edgeStyle=orthogonalEdgeStyle;rounded=0;orthogonalLoop=1;jettySize=auto;html=1;" edge="1" parent="1" source="zIlRIG3uply4K8ErRN-w-1" target="zIlRIG3uply4K8ErRN-w-2">
          <mxGeometry relative="1" as="geometry">
            <Array as="points">
              <mxPoint x="580" y="300" />
              <mxPoint x="580" y="300" />
            </Array>
          </mxGeometry>
        </mxCell>
        <mxCell id="zIlRIG3uply4K8ErRN-w-11" value="Timer" style="edgeLabel;html=1;align=center;verticalAlign=middle;resizable=0;points=[];" vertex="1" connectable="0" parent="zIlRIG3uply4K8ErRN-w-7">
          <mxGeometry x="-0.1333" relative="1" as="geometry">
            <mxPoint as="offset" />
          </mxGeometry>
        </mxCell>
        <mxCell id="zIlRIG3uply4K8ErRN-w-15" style="edgeStyle=orthogonalEdgeStyle;rounded=0;orthogonalLoop=1;jettySize=auto;html=1;entryX=0.5;entryY=0;entryDx=0;entryDy=0;exitX=1;exitY=0.75;exitDx=0;exitDy=0;" edge="1" parent="1" source="zIlRIG3uply4K8ErRN-w-1" target="zIlRIG3uply4K8ErRN-w-14">
          <mxGeometry relative="1" as="geometry" />
        </mxCell>
        <mxCell id="zIlRIG3uply4K8ErRN-w-18" value="Digital I/O&lt;br&gt;communication" style="edgeLabel;html=1;align=center;verticalAlign=middle;resizable=0;points=[];" vertex="1" connectable="0" parent="zIlRIG3uply4K8ErRN-w-15">
          <mxGeometry x="0.136" y="3" relative="1" as="geometry">
            <mxPoint x="-3" y="28" as="offset" />
          </mxGeometry>
        </mxCell>
        <mxCell id="zIlRIG3uply4K8ErRN-w-21" style="edgeStyle=orthogonalEdgeStyle;rounded=0;orthogonalLoop=1;jettySize=auto;html=1;entryX=0.75;entryY=0;entryDx=0;entryDy=0;exitX=0;exitY=0.75;exitDx=0;exitDy=0;" edge="1" parent="1" source="zIlRIG3uply4K8ErRN-w-1" target="zIlRIG3uply4K8ErRN-w-20">
          <mxGeometry relative="1" as="geometry">
            <mxPoint x="550" y="220" as="sourcePoint" />
            <Array as="points">
              <mxPoint x="550" y="250" />
              <mxPoint x="450" y="250" />
            </Array>
          </mxGeometry>
        </mxCell>
        <mxCell id="zIlRIG3uply4K8ErRN-w-26" value="Digital I/O signal" style="edgeLabel;html=1;align=center;verticalAlign=middle;resizable=0;points=[];" vertex="1" connectable="0" parent="zIlRIG3uply4K8ErRN-w-21">
          <mxGeometry x="0.5122" y="4" relative="1" as="geometry">
            <mxPoint x="16" as="offset" />
          </mxGeometry>
        </mxCell>
        <mxCell id="zIlRIG3uply4K8ErRN-w-29" style="edgeStyle=orthogonalEdgeStyle;rounded=0;orthogonalLoop=1;jettySize=auto;html=1;entryX=0.75;entryY=0;entryDx=0;entryDy=0;" edge="1" parent="1" target="zIlRIG3uply4K8ErRN-w-28">
          <mxGeometry relative="1" as="geometry">
            <mxPoint x="550" y="230" as="sourcePoint" />
            <mxPoint x="260" y="350" as="targetPoint" />
            <Array as="points">
              <mxPoint x="550" y="220" />
              <mxPoint x="260" y="220" />
            </Array>
          </mxGeometry>
        </mxCell>
        <mxCell id="zIlRIG3uply4K8ErRN-w-34" value="Digital I/O signal" style="edgeLabel;html=1;align=center;verticalAlign=middle;resizable=0;points=[];" vertex="1" connectable="0" parent="zIlRIG3uply4K8ErRN-w-29">
          <mxGeometry x="0.765" y="1" relative="1" as="geometry">
            <mxPoint as="offset" />
          </mxGeometry>
        </mxCell>
        <mxCell id="zIlRIG3uply4K8ErRN-w-37" style="edgeStyle=orthogonalEdgeStyle;rounded=0;orthogonalLoop=1;jettySize=auto;html=1;entryX=0.5;entryY=0;entryDx=0;entryDy=0;exitX=1;exitY=0.25;exitDx=0;exitDy=0;" edge="1" parent="1" source="zIlRIG3uply4K8ErRN-w-1" target="zIlRIG3uply4K8ErRN-w-36">
          <mxGeometry relative="1" as="geometry" />
        </mxCell>
        <mxCell id="zIlRIG3uply4K8ErRN-w-38" value="Digital I/O" style="edgeLabel;html=1;align=center;verticalAlign=middle;resizable=0;points=[];rotation=0;" vertex="1" connectable="0" parent="zIlRIG3uply4K8ErRN-w-37">
          <mxGeometry x="0.7955" y="1" relative="1" as="geometry">
            <mxPoint y="-15" as="offset" />
          </mxGeometry>
        </mxCell>
        <mxCell id="zIlRIG3uply4K8ErRN-w-1" value="Arduino Nano" style="rounded=0;whiteSpace=wrap;html=1;" vertex="1" parent="1">
          <mxGeometry x="550" y="190" width="120" height="60" as="geometry" />
        </mxCell>
        <mxCell id="zIlRIG3uply4K8ErRN-w-9" value="" style="edgeStyle=orthogonalEdgeStyle;rounded=0;orthogonalLoop=1;jettySize=auto;html=1;" edge="1" parent="1" source="zIlRIG3uply4K8ErRN-w-2" target="zIlRIG3uply4K8ErRN-w-1">
          <mxGeometry relative="1" as="geometry">
            <Array as="points">
              <mxPoint x="640" y="300" />
              <mxPoint x="640" y="300" />
            </Array>
          </mxGeometry>
        </mxCell>
        <mxCell id="zIlRIG3uply4K8ErRN-w-12" value="Data to Arduino&lt;br&gt;using I2C protocol" style="edgeLabel;html=1;align=center;verticalAlign=middle;resizable=0;points=[];" vertex="1" connectable="0" parent="zIlRIG3uply4K8ErRN-w-9">
          <mxGeometry x="-0.0667" y="-4" relative="1" as="geometry">
            <mxPoint x="16" y="-8" as="offset" />
          </mxGeometry>
        </mxCell>
        <mxCell id="zIlRIG3uply4K8ErRN-w-2" value="MPU6050 (Gyroscope &amp;amp; Accelerometer)" style="rounded=0;whiteSpace=wrap;html=1;" vertex="1" parent="1">
          <mxGeometry x="550" y="340" width="120" height="60" as="geometry" />
        </mxCell>
        <mxCell id="zIlRIG3uply4K8ErRN-w-13" value="2x GA37-520 DC&lt;br&gt;high-torque &lt;br&gt;geared motor" style="rounded=0;whiteSpace=wrap;html=1;" vertex="1" parent="1">
          <mxGeometry x="740" y="460" width="120" height="60" as="geometry" />
        </mxCell>
        <mxCell id="zIlRIG3uply4K8ErRN-w-16" style="edgeStyle=orthogonalEdgeStyle;rounded=0;orthogonalLoop=1;jettySize=auto;html=1;entryX=0.5;entryY=0;entryDx=0;entryDy=0;" edge="1" parent="1" source="zIlRIG3uply4K8ErRN-w-14" target="zIlRIG3uply4K8ErRN-w-13">
          <mxGeometry relative="1" as="geometry" />
        </mxCell>
        <mxCell id="zIlRIG3uply4K8ErRN-w-19" value="PWM signal" style="edgeLabel;html=1;align=center;verticalAlign=middle;resizable=0;points=[];" vertex="1" connectable="0" parent="zIlRIG3uply4K8ErRN-w-16">
          <mxGeometry x="-0.2" y="-1" relative="1" as="geometry">
            <mxPoint as="offset" />
          </mxGeometry>
        </mxCell>
        <mxCell id="zIlRIG3uply4K8ErRN-w-14" value="TB6612&lt;span style=&quot;white-space: pre;&quot;&gt;FNG motor &lt;br/&gt;module&lt;/span&gt;" style="rounded=0;whiteSpace=wrap;html=1;" vertex="1" parent="1">
          <mxGeometry x="740" y="340" width="120" height="60" as="geometry" />
        </mxCell>
        <mxCell id="zIlRIG3uply4K8ErRN-w-23" value="" style="edgeStyle=orthogonalEdgeStyle;rounded=0;orthogonalLoop=1;jettySize=auto;html=1;" edge="1" parent="1">
          <mxGeometry relative="1" as="geometry">
            <mxPoint x="390" y="350" as="sourcePoint" />
            <mxPoint x="550" y="240" as="targetPoint" />
            <Array as="points">
              <mxPoint x="390" y="240" />
              <mxPoint x="550" y="240" />
            </Array>
          </mxGeometry>
        </mxCell>
        <mxCell id="zIlRIG3uply4K8ErRN-w-27" value="Digital I/O signal" style="edgeLabel;html=1;align=center;verticalAlign=middle;resizable=0;points=[];" vertex="1" connectable="0" parent="zIlRIG3uply4K8ErRN-w-23">
          <mxGeometry x="-0.4172" y="4" relative="1" as="geometry">
            <mxPoint as="offset" />
          </mxGeometry>
        </mxCell>
        <mxCell id="zIlRIG3uply4K8ErRN-w-20" value="1x HC-SR04&amp;nbsp;&lt;br&gt;Ultrasonic sensor" style="rounded=0;whiteSpace=wrap;html=1;" vertex="1" parent="1">
          <mxGeometry x="360" y="340" width="120" height="60" as="geometry" />
        </mxCell>
        <mxCell id="zIlRIG3uply4K8ErRN-w-31" style="edgeStyle=orthogonalEdgeStyle;rounded=0;orthogonalLoop=1;jettySize=auto;html=1;exitX=0.25;exitY=0;exitDx=0;exitDy=0;entryX=0;entryY=0.25;entryDx=0;entryDy=0;" edge="1" parent="1" source="zIlRIG3uply4K8ErRN-w-28" target="zIlRIG3uply4K8ErRN-w-1">
          <mxGeometry relative="1" as="geometry" />
        </mxCell>
        <mxCell id="zIlRIG3uply4K8ErRN-w-35" value="PWM signal" style="edgeLabel;html=1;align=center;verticalAlign=middle;resizable=0;points=[];" vertex="1" connectable="0" parent="zIlRIG3uply4K8ErRN-w-31">
          <mxGeometry x="-0.6511" relative="1" as="geometry">
            <mxPoint y="12" as="offset" />
          </mxGeometry>
        </mxCell>
        <mxCell id="zIlRIG3uply4K8ErRN-w-28" value="2x Infrared Sensors (IR204C-A infrared LED &amp;amp; 2x IRM-56384 infrared receiver)" style="rounded=0;whiteSpace=wrap;html=1;" vertex="1" parent="1">
          <mxGeometry x="170" y="340" width="120" height="70" as="geometry" />
        </mxCell>
        <mxCell id="zIlRIG3uply4K8ErRN-w-36" value="RGB LEDs" style="rounded=0;whiteSpace=wrap;html=1;" vertex="1" parent="1">
          <mxGeometry x="930" y="340" width="120" height="60" as="geometry" />
        </mxCell>
      </root>
    </mxGraphModel>
  </diagram>
</mxfile>
